PathFileType	4	(X/Y/Z)	./resultDataOpenSim/trcMotMarkerGrf/sub10/qtm-02-07.trc
DataRate	CameraRate	NumFrames	NumMarkers	Units	OrigDataRate	OrigDataStartFrame	OrigNumFrames
250.000000	250.000000	10	24	m	250.000000	258	514
Frame#	Time	L.Toe.Tip			R.Toe.Tip			L.Ankle.Lat			R.Ankle.Lat			L.Ankle.Med			R.Ankle.Med			L.Heel			R.Heel			L.Knee.Lat			R.Knee.Lat			L.Knee.Med			R.Knee.Med			L.Thigh.Upper			R.Thigh.Upper			L.ASIS			R.ASIS			V.Sacral			L.Acromium			R.Acromium			C7			L.Elbow			R.Elbow			L.Wrist.Lat			R.Wrist.Lat
		X1	Y1	Z1	X2	Y2	Z2	X3	Y3	Z3	X4	Y4	Z4	X5	Y5	Z5	X6	Y6	Z6	X7	Y7	Z7	X8	Y8	Z8	X9	Y9	Z9	X10	Y10	Z10	X11	Y11	Z11	X12	Y12	Z12	X13	Y13	Z13	X14	Y14	Z14	X15	Y15	Z15	X16	Y16	Z16	X17	Y17	Z17	X18	Y18	Z18	X19	Y19	Z19	X20	Y20	Z20	X21	Y21	Z21	X22	Y22	Z22	X23	Y23	Z23	X24	Y24	Z24

258	1.028	0.014323869	0.017065046	-0.08821861	0.36218767	0.074133508	0.080296129	-0.11953108	0.044707174	-0.12106389	0.22021528	0.082609259	0.058732692	-0.11420492	0.068547726	-0.03818195	0.27087289	0.11474831	-0.0074520756	-0.18754359	0.019763736	-0.079564626	0.19606772	0.055905577	-0.0051152727	-0.030482806	0.42078613	-0.16204342	0.24306318	0.47975083	0.11440697	-0.032174509	0.40060566	-0.039931999	0.29059762	0.4988345	-0.0036092737	0.047227677	0.80688302	-0.22941446	0.059861703	0.84748627	0.15258492	0.11165321	0.91805473	-0.16948358	0.12194681	0.93730337	0.075365182	-0.094530173	0.94314608	-0.029820604	0.065851824	1.3997124	-0.19478478	0.029008737	1.3960305	0.12626949	-0.033886778	1.4254686	-0.050736926	0.042927088	1.0601344	-0.28761022	-0.076482013	1.0598766	0.16577468	0.23134516	0.90209573	-0.26399405	0.043450915	0.86551854	0.25899032
259	1.032	0.014358729	0.017031662	-0.088257833	0.38058516	0.075823928	0.081408682	-0.1195866	0.044844355	-0.12069161	0.23835861	0.080459587	0.059635794	-0.11371823	0.068718738	-0.03774708	0.28815034	0.11396345	-0.0065133772	-0.18751211	0.020050519	-0.079182516	0.21499091	0.052993511	-0.0039080387	-0.028889984	0.42063628	-0.16183002	0.24937352	0.47867434	0.11439703	-0.030115046	0.40030878	-0.039815257	0.29617036	0.49805565	-0.0036588154	0.050392416	0.80635111	-0.22945016	0.065987561	0.84691628	0.15270853	0.11571189	0.91718385	-0.16986496	0.12772594	0.93649446	0.075230994	-0.087873689	0.94143277	-0.030563455	0.071039207	1.3988964	-0.19480846	0.034844405	1.39502	0.12626883	-0.028498253	1.42464	-0.050518409	0.050276617	1.0595442	-0.28679585	-0.072807875	1.0595586	0.16616274	0.23999372	0.9031436	-0.26288602	0.046077371	0.86485597	0.26019059
260	1.036	0.014380392	0.017001587	-0.088282458	0.39881154	0.077658425	0.082382475	-0.11961223	0.044992489	-0.12031507	0.25642946	0.078535702	0.060609741	-0.11307819	0.068935368	-0.03719074	0.30523621	0.1134006	-0.0055322477	-0.18746724	0.020360013	-0.078781008	0.23375956	0.050373471	-0.0025766631	-0.027099128	0.42043748	-0.16169295	0.25555627	0.47743635	0.11440254	-0.027948647	0.40000672	-0.039664517	0.30165506	0.49710407	-0.0036888222	0.053585348	0.80581619	-0.22946406	0.072345222	0.84634287	0.15292258	0.11980502	0.91632657	-0.17018362	0.13352365	0.93563914	0.075117383	-0.080521965	0.93921936	-0.032236796	0.076231419	1.3980321	-0.19482289	0.040695852	1.3939624	0.12627272	-0.023121241	1.4237673	-0.050300502	0.057484889	1.0587404	-0.2858796	-0.069115772	1.0591993	0.16646651	0.24857301	0.90416128	-0.26177808	0.048737424	0.86415602	0.26136041
261	1.04	0.014397069	0.01697624	-0.088300826	0.41683738	0.079623083	0.083216374	-0.11958483	0.045154589	-0.11997209	0.27435461	0.076878454	0.061661906	-0.11249282	0.069147625	-0.036688234	0.3221186	0.11303299	-0.0044981059	-0.1874093	0.020694595	-0.078365644	0.25234798	0.048096674	-0.0012416751	-0.025136596	0.42019601	-0.16160287	0.26164362	0.4760812	0.11443835	-0.025674227	0.39969808	-0.039500695	0.30706368	0.49597815	-0.0037086909	0.056809002	0.80527891	-0.22945509	0.078843424	0.84573055	0.15319489	0.12395041	0.915489	-0.17042937	0.13934245	0.93474282	0.075024383	-0.073506086	0.93699698	-0.033773871	0.081420168	1.3971197	-0.19483197	0.046549141	1.3928638	0.12629124	-0.017755931	1.4228548	-0.050076665	0.064540103	1.0576857	-0.28554815	-0.065415186	1.0588143	0.16675966	0.25709427	0.90515464	-0.26066549	0.051425424	0.863421	0.2624968
262	1.044	0.014415604	0.016951058	-0.088319686	0.43463281	0.081718744	0.083923108	-0.11951023	0.045328174	-0.11966383	0.29206095	0.075533001	0.062793268	-0.11211181	0.069336832	-0.036354285	0.33877339	0.1128388	-0.0034114376	-0.18734117	0.02105786	-0.07793773	0.2707104	0.046202185	3.9626959e-05	-0.023037129	0.4199283	-0.16152542	0.26767686	0.47462335	0.11453003	-0.023316159	0.39938603	-0.039338388	0.31241398	0.49467842	-0.0037239157	0.060065906	0.80473995	-0.22942223	0.085291809	0.84500746	0.15345476	0.12813118	0.91466138	-0.17061551	0.14518178	0.93381148	0.074949355	-0.066855547	0.9349243	-0.034776263	0.086602773	1.3961618	-0.19482962	0.05239193	1.3917282	0.12632892	-0.012400572	1.4219064	-0.049847194	0.071438373	1.0564363	-0.28608015	-0.061648893	1.0584042	0.16709726	0.26555974	0.90612649	-0.25955462	0.054124077	0.86265023	0.26359626
263	1.048	0.014440838	0.016917044	-0.088346576	0.45217587	0.083954036	0.084519783	-0.11939939	0.045507777	-0.11937072	0.30948161	0.074548019	0.064003887	-0.11184814	0.069540345	-0.036109291	0.3551678	0.11281981	-0.0022768925	-0.18726628	0.021451314	-0.077487464	0.28879069	0.044673766	0.0013066594	-0.020829185	0.41964544	-0.16144358	0.27368224	0.47305053	0.11468153	-0.020912575	0.39908527	-0.03917256	0.31772621	0.49320993	-0.0037363115	0.063358592	0.80419998	-0.22936444	0.091569183	0.84412889	0.1536535	0.13234236	0.91383745	-0.17074821	0.15104365	0.93284995	0.074885214	-0.05940727	0.93262866	-0.035991494	0.091782843	1.3951655	-0.19480446	0.058229106	1.3905583	0.12638205	-0.007050615	1.4209288	-0.049611508	0.078098985	1.0549961	-0.28690235	-0.057731286	1.0579554	0.1674744	0.27396735	0.90707632	-0.25845104	0.056831881	0.86184154	0.26465786
264	1.052	0.0144752	0.016865898	-0.088387196	0.46945079	0.086318147	0.085017915	-0.11923923	0.045685704	-0.11907899	0.32658785	0.073924587	0.065297073	-0.11148177	0.069800713	-0.035774947	0.37127659	0.11299568	-0.001095622	-0.18718615	0.021874901	-0.076998767	0.30654538	0.043470009	0.0026231968	-0.018527731	0.41935505	-0.16134342	0.27967086	0.47137234	0.1148624	-0.018469878	0.39880727	-0.038998226	0.32301621	0.4915817	-0.0037485312	0.066689597	0.80365965	-0.22928075	0.097698523	0.84310287	0.1537936	0.13658417	0.91301834	-0.17082966	0.15692799	0.93185814	0.074822165	-0.050598843	0.92987418	-0.037954409	0.096962827	1.3941342	-0.19475638	0.064075266	1.3893603	0.1264421	-0.001705611	1.4199305	-0.049358659	0.084419004	1.0534838	-0.28703862	-0.05363033	1.0574612	0.16787367	0.28231835	0.90800383	-0.25735041	0.059568504	0.8609957	0.26568237
265	1.056	0.014516662	0.016801571	-0.088434568	0.48643395	0.088770672	0.085423784	-0.11899784	0.045857964	-0.11878755	0.34339495	0.073584075	0.06668292	-0.11092602	0.070109644	-0.035283882	0.38708586	0.113371	0.0001327532	-0.18709857	0.022331761	-0.076458237	0.32394404	0.042560461	0.0040257921	-0.016140688	0.41906896	-0.16117255	0.28564805	0.46963224	0.11502985	-0.015934641	0.39854759	-0.038822413	0.32829529	0.48980888	-0.0037680394	0.07006146	0.80311964	-0.2291702	0.10376637	0.84195896	0.15390105	0.14084438	0.91220636	-0.17087181	0.16283074	0.93083277	0.074756276	-0.041476601	0.92703303	-0.039997782	0.10214469	1.3930657	-0.19469915	0.069935777	1.3881436	0.12650125	0.0036266701	1.4189178	-0.049068447	0.090215662	1.0522312	-0.2858657	-0.049373503	1.05693	0.1683027	0.29061666	0.9089085	-0.25624239	0.062353463	0.86011668	0.26667028
266	1.06	0.014558624	0.016744959	-0.088465342	0.50308652	0.091268328	0.085745431	-0.11866953	0.046041655	-0.1184963	0.35991857	0.073428882	0.068166069	-0.1102875	0.070427345	-0.0347157	0.40257028	0.11392902	0.0014022338	-0.18699816	0.022829146	-0.075860378	0.34094366	0.041912888	0.0055371965	-0.013681577	0.41880189	-0.16082775	0.29162692	0.46787131	0.11517763	-0.013234214	0.39828722	-0.038645252	0.33357626	0.4879131	-0.0038054682	0.073476705	0.80258061	-0.22903172	0.10983801	0.84072211	0.15399595	0.1451062	0.91139728	-0.17089535	0.16875413	0.92977568	0.074693603	-0.033500438	0.92466611	-0.041064443	0.10733445	1.3919609	-0.19464674	0.075807714	1.3869141	0.12655499	0.0089381102	1.4178892	-0.048728262	0.095389431	1.0514928	-0.28345212	-0.045012426	1.056377	0.1687649	0.29886504	0.90978915	-0.25511932	0.065200633	0.85921143	0.26762323
267	1.064	0.014593837	0.016717795	-0.088458705	0.51936396	0.093789295	0.085987999	-0.11830653	0.046274257	-0.11819221	0.37614354	0.073405191	0.069720628	-0.10968986	0.070734181	-0.034160895	0.41767533	0.11465239	0.0026943801	-0.18688167	0.023373596	-0.075210947	0.35749473	0.041477902	0.0071668878	-0.011171098	0.41855878	-0.16023017	0.29765912	0.46611795	0.11537319	-0.01033676	0.39800155	-0.038446521	0.33887364	0.4859163	-0.0038700711	0.076937812	0.8020432	-0.22886384	0.11594042	0.83940888	0.15408865	0.14936053	0.91057962	-0.17092288	0.17470759	0.92869433	0.074641131	-0.027175701	0.92297331	-0.040805113	0.1125373	1.3908293	-0.19459852	0.081686698	1.3856731	0.12660456	0.014237497	1.4168365	-0.048359242	0.10037747	1.0511118	-0.28056012	-0.040599046	1.0558083	0.16922233	0.30706333	0.91064677	-0.25397983	0.068126515	0.85829023	0.26855093
